<?xml version="1.0" encoding="utf-8"?>
<!-- Generator: Adobe Illustrator 17.0.0, SVG Export Plug-In . SVG Version: 6.00 Build 0)  -->
<!DOCTYPE svg PUBLIC "-//W3C//DTD SVG 1.1//EN" "http://www.w3.org/Graphics/SVG/1.1/DTD/svg11.dtd">
<svg version="1.1" id="图层_1" xmlns="http://www.w3.org/2000/svg" xmlns:xlink="http://www.w3.org/1999/xlink" x="0px" y="0px"
	 width="48.324px" height="39.861px" viewBox="0 0 48.324 39.861" enable-background="new 0 0 48.324 39.861" xml:space="preserve">
<g>
	<linearGradient id="SVGID_1_" gradientUnits="userSpaceOnUse" x1="17.0273" y1="7.5562" x2="41.8577" y2="7.5562">
		<stop  offset="0" style="stop-color:#1ED67D"/>
		<stop  offset="1" style="stop-color:#A8DA3E"/>
	</linearGradient>
	<path fill="url(#SVGID_1_)" d="M29.674,5.093c5.852,0,10.77,3.83,12.184,9.019C41.581,6.828,35.163,1,27.28,1
		c-3.997,0-7.617,1.499-10.253,3.926c1.91,0.462,3.655,1.348,5.124,2.559C24.25,5.983,26.854,5.093,29.674,5.093z"/>
	<linearGradient id="SVGID_2_" gradientUnits="userSpaceOnUse" x1="4.9033" y1="11.5969" x2="20.4996" y2="11.5969">
		<stop  offset="0" style="stop-color:#1ED67D"/>
		<stop  offset="1" style="stop-color:#A8DA3E"/>
	</linearGradient>
	<path fill="url(#SVGID_2_)" d="M12.029,14.463c0-3.483,3.148-6.307,7.032-6.307c0.493,0,0.974,0.046,1.439,0.133
		c-1.628-1.41-3.648-2.245-5.837-2.245c-5.33,0-9.659,4.953-9.76,11.106c2.191-1.044,4.637-1.635,7.22-1.658
		C12.062,15.157,12.029,14.814,12.029,14.463z"/>
	<linearGradient id="SVGID_3_" gradientUnits="userSpaceOnUse" x1="1.279386e-08" y1="24.9723" x2="48.3236" y2="24.9723">
		<stop  offset="0" style="stop-color:#1ED67D"/>
		<stop  offset="1" style="stop-color:#A8DA3E"/>
	</linearGradient>
	<path fill="url(#SVGID_3_)" d="M42.489,11.222c0.093,0.673,0.141,1.362,0.141,2.063c0,0.225-0.006,0.449-0.015,0.671
		c1.805,0.576,3.34,1.793,4.363,3.395c0.737,1.252,1.492,3.616-0.909,6.235c-1.822,1.705-4.312,2.73-7.051,2.966
		c-8.505,0.733-16.212-5.129-16.212-5.129c-2.87-2.348-6.491-3.748-10.427-3.748c-4.892,0-9.296,2.166-12.378,5.624
		c4.818,0.803,8.938,3.614,11.431,7.522l0.263,0.344c2.801,4.53,7.88,7.557,13.68,7.557c7.091,0,11.618-3.839,13.643-9.523
		c-2.725,4.819-6.419,6.816-12.44,6.816c-5.539,0-10.42-2.761-13.287-6.954c0,0-3.295-4.951-4.664-5.954
		c0,0-0.233-0.218,0.144-0.397c1.606-0.761,3.387-1.234,5.285-1.234c2.264,0,4.38,0.631,6.182,1.728l1.555,0.992
		c3.466,2.381,7.649,3.791,12.158,3.848c-2.11,1.376-4.698,2.19-7.498,2.19c-3.37,0-6.435-1.176-8.726-3.097
		c2.273,3.268,6.293,5.441,10.875,5.441c3.966,0,7.511-1.627,9.867-4.184c3.213-0.085,6.273-1.687,8.116-4.12l0,0l0.002-0.003
		c0.809-1.068,1.382-2.296,1.632-3.626c0,0.001,0,0.002,0.001,0.003c0.001-0.005,0.001-0.01,0.002-0.015l0.007-0.061
		c0.061-0.415,0.096-0.839,0.096-1.272C48.324,15.467,45.859,12.235,42.489,11.222z"/>
</g>
</svg>
